<svg xmlns="http://www.w3.org/2000/svg" viewBox="0 0 30 30" width="30" height="30">
	<style>
		tspan { white-space:pre }
		.shp0 { fill: #ff0000 } 
	</style>
	<g id="Layer">
		<path id="svg_1" class="shp0" d="M1.77 29.91C0.78 29.91 0 29.1 0 28.07L0 1.93C0 0.9 0.78 0.09 1.77 0.09C1.86 0.09 1.94 0.1 2.02 0.11C2.1 0.12 2.19 0.14 2.27 0.16C2.35 0.18 2.43 0.21 2.5 0.24C2.58 0.28 2.66 0.31 2.73 0.36L22.46 13.43C23.05 13.77 23.41 14.35 23.41 15C23.41 15.65 23.05 16.23 22.46 16.57L2.73 29.64C2.66 29.69 2.58 29.72 2.5 29.76C2.43 29.79 2.35 29.82 2.27 29.84C2.19 29.86 2.1 29.88 2.02 29.89C1.94 29.9 1.86 29.91 1.77 29.91L1.77 29.91L1.77 29.91Z" />
		<path id="svg_2" class="shp0" d="M26.37 29.27C25.89 29.27 25.42 29.17 24.98 28.99C24.54 28.81 24.14 28.54 23.8 28.21C23.47 27.87 23.2 27.47 23.02 27.03C22.84 26.59 22.74 26.12 22.74 25.64L22.74 4.36C22.74 3.4 23.12 2.47 23.8 1.79C24.49 1.11 25.41 0.73 26.37 0.73C27.33 0.73 28.26 1.11 28.94 1.79C29.62 2.47 30 3.4 30 4.36L30 25.64C30 26.12 29.91 26.59 29.72 27.03C29.54 27.47 29.27 27.87 28.94 28.21C28.6 28.54 28.2 28.81 27.76 28.99C27.32 29.17 26.85 29.27 26.37 29.27L26.37 29.27Z" />
	</g>
</svg>