<svg width="512" height="512" xmlns="http://www.w3.org/2000/svg">
 <title>forward-glyph</title>

 <g>
  <title>Layer 1</title>
  <path id="svg_1" fill="#ff0000" d="m30.24,510.43c-17,0 -30.24,-13.78 -30.24,-31.36l0,-446.14c0,-17.58 13.28,-31.36 30.25,-31.36a32.73,32.73 0 0 1 16.3,4.49l336.84,223.06c10.07,5.81 16.08,15.86 16.08,26.88s-6,21.07 -16.08,26.87l-336.84,223.07a32.72,32.72 0 0 1 -16.3,4.49l-0.01,0z"/>
  <path id="svg_2" fill="#ff0000" d="m450.06,499.51a61.94,61.94 0 0 1 -61.94,-61.93l0,-363.16a61.94,61.94 0 0 1 123.88,0l0,363.16a61.94,61.94 0 0 1 -61.94,61.93z"/>
 </g>
</svg>